<svg width="2901" height="2859" viewBox="0 0 2901 2859" fill="none" xmlns="http://www.w3.org/2000/svg">
<g filter="url(#filter0_i)">
<path d="M0 1429.27C0 2218.64 649.421 2858.53 1450.46 2858.53C2251.58 2858.53 2901 2218.64 2901 1429.27C2901 639.895 2251.58 0 1450.46 0C649.421 0 0 639.895 0 1429.27ZM1897.56 2033.41L883.294 1034.03L779.818 931.983L645.488 799.632L829.477 618.27L2081.62 1852.05C2132.4 1902.08 2132.4 1983.3 2081.62 2033.41C2056.19 2058.43 2022.89 2070.98 1989.59 2070.98C1956.3 2070.98 1922.99 2058.43 1897.56 2033.41ZM2032.52 1697.68L1133.84 812.18L1317.9 630.819L1529.04 838.856L2216.59 1516.32C2267.37 1566.43 2267.37 1647.64 2216.59 1697.68C2191.15 1722.7 2157.85 1735.25 2124.55 1735.25C2091.25 1735.25 2057.95 1722.7 2032.52 1697.68ZM2011.62 799.711L2127.04 686.064C2177.9 635.949 2260.24 635.949 2311.1 686.064C2361.88 736.1 2361.88 817.31 2311.1 867.425L1988.31 1185.4L1596.88 799.711C1654.15 856.147 1729.2 884.362 1804.25 884.362C1879.3 884.362 1954.35 856.147 2011.62 799.711ZM1629.88 2238.29L598.64 1222.18L782.701 1040.82L1099.4 1352.87L1813.85 2056.93C1864.72 2106.97 1864.72 2188.18 1813.85 2238.29C1788.47 2263.31 1755.17 2275.86 1721.87 2275.86C1688.57 2275.86 1655.27 2263.31 1629.88 2238.29ZM1319.03 2400.71L551.784 1644.72L735.845 1463.36L1503.09 2219.35C1553.95 2269.46 1553.95 2350.6 1503.09 2400.71C1477.7 2425.73 1444.39 2438.28 1411.09 2438.28C1377.78 2438.28 1344.45 2425.73 1319.03 2400.71Z" fill="#C83128"/>
</g>
<defs>
<filter id="filter0_i" x="0" y="0" width="2901" height="2858.53" filterUnits="userSpaceOnUse" color-interpolation-filters="sRGB">
<feFlood flood-opacity="0" result="BackgroundImageFix"/>
<feBlend mode="normal" in="SourceGraphic" in2="BackgroundImageFix" result="shape"/>
<feColorMatrix in="SourceAlpha" type="matrix" values="0 0 0 0 0 0 0 0 0 0 0 0 0 0 0 0 0 0 127 0" result="hardAlpha"/>
<feOffset/>
<feGaussianBlur stdDeviation="100"/>
<feComposite in2="hardAlpha" operator="arithmetic" k2="-1" k3="1"/>
<feColorMatrix type="matrix" values="0 0 0 0 0 0 0 0 0 0 0 0 0 0 0 0 0 0 0.5 0"/>
<feBlend mode="normal" in2="shape" result="effect1_innerShadow"/>
</filter>
</defs>
</svg>
