<svg width="2901" height="2901" viewBox="0 0 2901 2901" fill="none" xmlns="http://www.w3.org/2000/svg">
<path d="M0 1450.5C0 2251.6 649.421 2901 1450.46 2901C2251.58 2901 2901 2251.6 2901 1450.5C2901 649.401 2251.58 0 1450.46 0C649.421 0 0 649.401 0 1450.5ZM1897.56 2063.62L883.294 1049.39L779.818 945.828L645.488 811.511L829.477 627.455L2081.62 1879.56C2132.4 1930.34 2132.4 2012.76 2081.62 2063.62C2056.19 2089.01 2022.89 2101.74 1989.59 2101.74C1956.3 2101.74 1922.99 2089.01 1897.56 2063.62ZM2032.52 1722.9L1133.84 824.246L1317.9 640.19L1529.04 851.318L2216.59 1538.84C2267.37 1589.7 2267.37 1672.12 2216.59 1722.9C2191.15 1748.29 2157.85 1761.02 2124.55 1761.02C2091.25 1761.02 2057.95 1748.29 2032.52 1722.9ZM2011.62 811.591L2127.04 696.256C2177.9 645.396 2260.24 645.396 2311.1 696.256C2361.88 747.036 2361.88 829.452 2311.1 880.312L1988.31 1203.01L1596.88 811.591C1654.15 868.866 1729.2 897.5 1804.25 897.5C1879.3 897.5 1954.35 868.866 2011.62 811.591ZM1629.88 2271.54L598.64 1240.33L782.701 1056.28L1099.4 1372.97L1813.85 2087.49C1864.72 2138.27 1864.72 2220.68 1813.85 2271.54C1788.47 2296.93 1755.17 2309.67 1721.87 2309.67C1688.57 2309.67 1655.27 2296.93 1629.88 2271.54ZM1319.03 2436.38L551.784 1669.16L735.845 1485.1L1503.09 2252.32C1553.95 2303.18 1553.95 2385.52 1503.09 2436.38C1477.7 2461.76 1444.39 2474.5 1411.09 2474.5C1377.78 2474.5 1344.45 2461.76 1319.03 2436.38Z" fill="#C83128"/>
</svg>
