<?xml version="1.0" standalone="no"?>
<!DOCTYPE svg PUBLIC "-//W3C//DTD SVG 20010904//EN"
 "http://www.w3.org/TR/2001/REC-SVG-20010904/DTD/svg10.dtd">
<svg version="1.0" xmlns="http://www.w3.org/2000/svg"
 width="700.000000pt" height="700.000000pt" viewBox="0 0 700.000000 700.000000"
 preserveAspectRatio="xMidYMid meet">
<metadata>
Created by potrace 1.11, written by Peter Selinger 2001-2013
</metadata>
<g transform="translate(0.000000,700.000000) scale(0.100000,-0.100000)"
fill="#000000" stroke="none">
<path d="M675 6993 c-306 -43 -564 -274 -652 -584 -17 -61 -18 -184 -18 -2909
0 -2725 1 -2848 18 -2909 71 -249 264 -462 493 -542 145 -51 3 -49 2984 -49
2981 0 2839 -2 2984 49 141 49 295 172 385 306 48 72 88 165 113 260 10 40 13
599 13 2890 0 2720 -1 2843 -18 2904 -79 277 -282 482 -562 567 -57 18 -185
19 -2885 20 -1554 1 -2838 -1 -2855 -3z m2866 -3050 c1473 -1474 1538 -1540
1554 -1592 23 -72 17 -189 -14 -249 -29 -57 -87 -113 -147 -143 -70 -34 -197
-34 -269 0 -41 20 -338 311 -1580 1552 l-1530 1529 220 220 c121 121 222 220
225 220 3 0 696 -692 1541 -1537z m750 400 c1234 -1235 1144 -1135 1144 -1283
0 -62 -5 -85 -28 -132 -32 -65 -90 -121 -156 -152 -66 -30 -187 -29 -256 4
-41 19 -254 226 -1155 1126 l-1105 1104 220 220 c121 121 222 220 225 220 3 0
503 -498 1111 -1107z m1205 1034 c106 -54 168 -155 168 -277 1 -138 1 -138
-459 -600 l-405 -405 -447 449 c-247 247 -432 437 -413 423 52 -38 176 -94
250 -113 91 -24 244 -22 342 4 160 43 224 88 458 318 226 222 249 236 380 230
57 -2 87 -9 126 -29z m-2343 -2187 c1405 -1408 1312 -1305 1312 -1450 -1 -121
-61 -221 -169 -278 -44 -23 -63 -27 -141 -27 -78 0 -96 4 -140 27 -37 20 -373
350 -1310 1287 l-1260 1261 220 220 c121 121 222 220 225 220 3 0 571 -567
1263 -1260z m-427 -722 c1053 -1055 989 -982 988 -1128 0 -125 -61 -222 -172
-277 -47 -23 -70 -28 -132 -28 -148 0 -65 -72 -1128 989 l-952 951 217 217
c120 120 222 218 228 218 6 0 434 -424 951 -942z"/>
</g>
</svg>
